# xmcd
#
# Track frame offsets:
#	150
#	17018
#	35807
#	45603
#	58493
#	73603
#	87209
#	102814
#	119750
#	137441
#	155580
#	170938
#	186516
#
# Disc length: 2712 seconds
#
# Revision: 0
# Processed by: cddbd v1.5.1PL0 Copyright (c) Steve Scherf et al.
# Submitted via: EasyCDDAExtractor 8.2.1.1
#
DISCID=c20a960d
DTITLE=Various Artist - CDX 377
DYEAR=2005
DGENRE=Country
TTITLE0=Dwight Yoakam - Blame The Vain
TTITLE1=George Jones and Dolly PArton - The Blues Man
TTITLE2=Kentucky Headhunters - Chug-A-Lug
TTITLE3=Amber Dotson - I Ain't Your mama
TTITLE4=Steve Holy - It's My Time (Waste It If I Want To)
TTITLE5=Jamey Johnson - The Dollar
TTITLE6=Becky Hobbs - Another Man In Black
TTITLE7=Natalie Howard - I Don't Want To Live Like That
TTITLE8=Forty 5 South - I've Been There Too
TTITLE9=Jeffery Michaels - Mile High
TTITLE10=Johnny Apollo - I Never Got To know Him
TTITLE11=Dean Justin feat. LaSalle Gabriel - She's On Fire
TTITLE12=The Rider - Still Want You
EXTD=
EXTT0=
EXTT1=
EXTT2=
EXTT3=
EXTT4=
EXTT5=
EXTT6=
EXTT7=
EXTT8=
EXTT9=
EXTT10=
EXTT11=
EXTT12=
PLAYORDER=
